<?xml version="1.0" encoding="UTF-8"?>
<svg width="49px" height="32px" viewBox="0 0 49 32" version="1.1" xmlns="http://www.w3.org/2000/svg" xmlns:xlink="http://www.w3.org/1999/xlink">
    <title>无数据</title>
    <g id="风控设置" stroke="none" stroke-width="1" fill="none" fill-rule="evenodd">
        <g id="15-合规触警/初始空" transform="translate(-936.000000, -219.000000)" fill-rule="nonzero">
            <g id="无数据" transform="translate(936.000000, 219.000000)">
                <path d="M24.4671184,22.0204113 C37.9796918,22.0204113 48.9342368,24.5423581 48.9342368,27.6527265 C48.9342368,29.1011811 46.5609243,30.4217933 42.6596656,31.4194418 L42.659682,31.4194411 C30.5368542,31.9368039 18.3974626,31.9368039 6.27463476,31.4194425 C2.37394712,30.4224074 1.64135786e-05,29.1017953 1.64135786e-05,27.6533407 C1.64135786e-05,24.5423447 10.9545614,22.0204113 24.4671348,22.0204113 L24.4671184,22.0204113 Z" id="路径" fill="#F7F7F7"></path>
                <path d="M33.8771819,0.305838862 L15.6687317,0.305838862 L15.6687316,0.305838862 C15.4028094,0.305838862 15.1499672,0.421214637 14.9756993,0.622076512 L6.96883041,9.85659323 L6.9688304,9.85659325 C6.63660761,10.2392206 6.67746849,10.8187218 7.06009633,11.1509442 C7.09757062,11.1834819 7.1376229,11.2129254 7.17985936,11.2389851 L17.2175027,17.4328142 L32.4941798,17.4328142 L42.3746333,11.2389851 L42.3746332,11.2389852 C42.804083,10.9700073 42.9341698,10.4038213 42.6651934,9.97436866 C42.6400406,9.93420973 42.6118144,9.89605968 42.5807686,9.86026088 L34.5702189,0.622110528 L34.5702189,0.622110553 C34.395951,0.421248678 34.1431102,0.305838862 33.8771866,0.305838862 L33.8771819,0.305838862 Z" id="路径" fill="#B6B6B6"></path>
                <path d="M15.6687317,0.917490937 L33.8771819,0.917490937 L33.8771819,0.917490937 C33.965648,0.917490937 34.049751,0.955953029 34.1077843,1.02272386 L42.118334,10.2614877 L42.118334,10.2614877 C42.2288879,10.3890422 42.2151995,10.5820456 42.0877501,10.6927208 L42.0596129,10.7141294 L32.3174262,16.8211289 L17.3912764,16.8211289 L7.50105462,10.7178103 L7.50105462,10.7178103 C7.35734361,10.6290534 7.31279436,10.4406011 7.4015512,10.2968896 C7.41018938,10.2829031 7.41994119,10.2696357 7.43071179,10.2572166 L15.4375807,1.02269984 L15.4375806,1.02269986 C15.4957546,0.955767925 15.5801157,0.917490937 15.6687951,0.917490937 L15.6687317,0.917490937 Z" id="路径" fill="#FFFFFF"></path>
                <path d="M16.3317983,9.78682848 L16.3317983,9.78682848 C17.0074411,9.78682848 17.5551566,10.3345439 17.5551566,11.010182 C17.5551566,11.010182 17.5551566,11.010182 17.5551566,11.010182 L17.5551566,13.4116292 L17.5551566,13.4116208 C17.5529836,14.5606832 18.4463633,15.5125196 19.5932596,15.5830875 L19.7204886,15.5861459 L29.8254249,15.5861459 L29.825425,15.5861459 C30.9741853,15.5837814 31.9220012,14.6863883 31.9870951,13.5394732 L31.9907651,13.411021 L31.9907651,11.0101873 L31.9907651,11.0101871 C31.9907653,10.3345443 32.5384806,9.78682848 33.2141234,9.78682848 L42.0957061,9.78682848 C42.4945202,9.78682848 42.817491,10.1110227 42.817491,10.511672 L42.817491,27.1860225 L42.817491,27.186071 C42.8198272,28.3844186 41.8504504,29.3578587 40.6521075,29.360539 L8.89385098,29.360539 L8.89385092,29.360539 C7.69526739,29.3578395 6.72581019,28.3840081 6.72850384,27.1854245 C6.72850384,27.1854208 6.72850384,27.1854171 6.72850384,27.1854134 L6.72850384,10.5116763 C6.72850384,10.1116387 7.05147549,9.78682848 7.45028997,9.78682848 L16.3318727,9.78682848 L16.3317983,9.78682848 Z" id="路径" fill="#B6B6B6"></path>
                <path d="M16.3317983,10.398499 L7.45021563,10.398499 L7.45021563,10.398499 C7.40251834,10.3989588 7.36053811,10.4300738 7.34623058,10.4755769 L7.34010919,10.5122776 L7.34010919,27.1854012 L7.34010919,27.1853933 C7.33812997,28.0062681 7.97272409,28.6882013 8.79161688,28.7451785 L8.89376719,28.7488486 L40.6520709,28.7488486 L40.652071,28.7488486 C41.4728561,28.7466024 42.151118,28.1079376 42.202673,27.2887711 L42.2057362,27.1853976 L42.2057362,10.5116606 L42.2057362,10.5116607 C42.2061738,10.4634037 42.1759638,10.4201767 42.130495,10.4040052 L42.0956371,10.398499 L33.2140543,10.398499 L33.2140544,10.398499 C32.9039491,10.398499 32.6429421,10.6306361 32.6066577,10.9386132 L32.6023759,11.0101796 L32.6023759,13.4293655 L32.5974825,13.5743332 L32.5974825,13.5743327 C32.5167211,14.9937748 31.3786734,16.1239093 29.9587027,16.1947603 L29.825357,16.1978187 L19.7026773,16.1978187 L19.5577096,16.193537 L19.5577095,16.193537 C18.1383004,16.1078163 17.0120308,14.965455 16.9464556,13.5449699 L16.9433972,13.4116242 L16.9433972,11.010177 L16.9433972,11.0102577 C16.9433972,10.7001524 16.7113366,10.4391124 16.4033643,10.4027902 L16.3317181,10.398499 L16.3317983,10.398499 Z" id="路径" fill="#F7F7F7"></path>
            </g>
        </g>
    </g>
</svg>